<?xml version="1.0" encoding="UTF-8" standalone="no"?><!DOCTYPE svg PUBLIC "-//W3C//DTD SVG 1.1//EN" "http://www.w3.org/Graphics/SVG/1.1/DTD/svg11.dtd"><svg width="100%" height="100%" viewBox="0 0 413 318" version="1.1" xmlns="http://www.w3.org/2000/svg" xmlns:xlink="http://www.w3.org/1999/xlink" xml:space="preserve" xmlns:serif="http://www.serif.com/" style="fill-rule:evenodd;clip-rule:evenodd;stroke-linecap:round;stroke-linejoin:round;stroke-miterlimit:1.5;"><g id="Logo-weiß" serif:id="Logo weiß"><path id="Ring-außen" serif:id="Ring außen" d="M350.825,105.955c35.616,-0.138 54.741,4.153 56.277,12.955c3.163,18.121 -84.364,48.556 -195.336,67.923c-110.971,19.367 -203.634,20.379 -206.796,2.259c-1.464,-8.392 12.604,-18.696 41.324,-29.64" style="fill:none;stroke:#fff;stroke-width:9.73px;"/><circle id="Kreis" cx="203.384" cy="158.569" r="155.069" style="fill:none;stroke:#fff;stroke-width:7px;"/><g><path d="M136.48,227.043c0.617,0.768 0.983,1.633 1.098,2.598l0.407,5.031l8.423,-3.263l-20.815,-22.695c-0.403,3.558 -3.324,6.389 -3.737,6.776l-22.562,20.693c-0.42,0.382 -3.492,3.045 -7.073,3.138l9.148,9.975c0.706,-3.909 3.828,-6.773 3.828,-6.773l9.742,-8.935l4.488,4.894c-0,-0 2.479,2.703 3.231,7.078l6.804,-6.241c-3.557,-0.404 -6.387,-3.322 -6.773,-3.739l-4.533,-4.942l11.743,-10.77l6.581,7.175Z" style="fill:#fff;fill-rule:nonzero;stroke:#fff;stroke-width:0.24px;stroke-linecap:butt;stroke-miterlimit:2;"/><path d="M118.332,266.019l10.154,7.327c0.317,-4.758 1.961,-7.257 2.361,-7.811l24.83,-34.412c-0,-0 -10.611,-2.155 -10.665,-2.08c0.707,3.238 -1.403,6.162 -1.403,6.162l-18.76,25.999c-0.649,0.899 -2.854,3.854 -6.517,4.815l-0,-0Z" style="fill:#fff;fill-rule:nonzero;stroke:#fff;stroke-width:0.24px;stroke-linecap:butt;stroke-miterlimit:2;"/><path d="M153.491,282.065c-3.222,-1.485 -5.641,-2.987 -5.666,-8.759c0.004,-0.762 0.169,-1.093 0.169,-1.093l20.809,-10.256c0,-0 -0.601,-5.501 -7.32,-8.597c-8.643,-3.982 -15.379,0.587 -19.397,9.307c-5.054,10.97 -2.416,18.242 5.049,21.682c6.606,3.043 11.349,0.004 12.155,-0.389c-1.93,-0.486 -3.98,-1.057 -5.799,-1.895l-0,-0Zm-2.654,-24.442c1.173,-2.256 2.251,-3.194 4.243,-2.128c4.834,2.588 7.276,5.47 2.172,8.669c-1.687,1.057 -8.912,5.492 -8.912,5.492c0.035,-0.076 0.568,-7.846 2.497,-12.033l-0,0Z" style="fill:#fff;fill-rule:nonzero;stroke:#fff;stroke-width:0.24px;stroke-linecap:butt;stroke-miterlimit:2;"/><path d="M194.705,296.077c-1.407,-4.633 -1.183,-7.068 -1.047,-7.823c1.041,-5.795 2.032,-11.602 3.073,-17.398c1.041,-5.796 -1.6,-8.884 -5.974,-9.67c-4.372,-0.785 -11.265,2.988 -12.787,3.935l1.085,-6.037c-0,0 -10.499,2.645 -10.515,2.735c2.035,2.613 1.398,6.163 1.398,6.163c-0.932,5.167 -1.855,10.338 -2.783,15.506c-0.16,0.89 -0.973,4.594 -3.758,6.962l12.322,2.214c-1.683,-4.224 -1.129,-7.657 -1.062,-8.03l3.062,-17.762c2.284,-0.552 4.07,-0.573 5.54,-0.309c7.009,1.259 6.111,6.257 6.111,6.257c-0.837,4.66 -1.674,9.322 -2.511,13.981c-0.047,0.262 -0.455,1.939 -3.737,7.192l11.583,2.081l-0,0.003Z" style="fill:#fff;fill-rule:nonzero;stroke:#fff;stroke-width:0.24px;stroke-linecap:butt;stroke-miterlimit:2;"/><path d="M215.826,275.845c-6.22,-3.893 -10.609,-6.285 -10.728,-7.803c-0.054,-0.684 0.754,-1.118 2.592,-1.262c5.989,-0.471 12.571,5.798 12.571,5.798l2.343,-8.115c-0,0 -2.538,-3.226 -11.112,-2.552c-7.314,0.574 -10.841,5.735 -10.594,8.888c0.249,3.165 1.404,6.568 10.666,12.23c6.208,3.494 10.296,5.4 10.417,6.945c-0.72,0.861 -1.564,1.321 -2.531,1.381c-8.389,0.597 -12.999,-6.402 -12.999,-6.402l-5.624,6.724c0,-0 3.821,5.028 12.771,4.325c12.736,-1.001 13.291,-7.642 13.163,-9.281c-0.344,-4.443 -3.19,-6.028 -10.935,-10.876l0,0Z" style="fill:#fff;fill-rule:nonzero;stroke:#fff;stroke-width:0.24px;stroke-linecap:butt;stroke-miterlimit:2;"/><path d="M242.428,254.723c-3.709,1.272 -7.831,7.767 -8.679,9.196l-7.324,-21.355l-7.973,7.546c3.049,1.292 4.241,4.765 4.241,4.765l12.904,37.624c0,-0 2.541,-2.14 4.687,-4.08c4.164,0.646 7.504,0.437 10.195,-0.487c7.955,-2.728 9.58,-11.442 6.399,-20.717c-2.464,-7.177 -8.41,-14.564 -14.45,-12.492l-0,0Zm8.543,27.826c-2.341,3.511 -8.153,3.638 -10.479,0.049c-0.639,-0.985 -1.05,-2.075 -1.131,-2.31c-1.714,-4.997 -3.259,-9.511 -4.975,-14.513c0.793,-0.807 2.762,-2.083 4.916,-2.821c1.914,-0.657 3.992,-0.835 5.521,0.112c1.729,1.142 3.743,4.864 5.118,8.874c1.472,4.303 2.153,8.815 1.03,10.609l-0,-0Z" style="fill:#fff;fill-rule:nonzero;stroke:#fff;stroke-width:0.24px;stroke-linecap:butt;stroke-miterlimit:2;"/><path d="M291.887,259.438c-3.288,-0.416 -5.337,-3.381 -5.337,-3.381l-13.593,-19.664l-5.631,9.427c3.288,0.417 5.374,3.434 5.374,3.434l9.062,13.11c-1.37,2.023 -2.594,3.308 -3.817,4.153c-5.255,3.633 -8.588,-1.189 -8.588,-1.189l-12.371,-17.896l-5.254,8.859c3.253,0.366 5.375,3.437 5.375,3.437l8.883,12.85c1.798,2.602 4.975,6.861 10.956,2.726l0.104,-0.071c3.815,-2.712 5.45,-9.689 5.824,-11.482l3.235,4.68c-0.002,-0.002 5.813,-8.942 5.778,-8.993l-0,0Z" style="fill:#fff;fill-rule:nonzero;stroke:#fff;stroke-width:0.24px;stroke-linecap:butt;stroke-miterlimit:2;"/><path d="M286.528,220.129c-3.296,3.839 -2.723,9.58 -2.391,11.617l-4.461,-3.83l-3.055,10.544c2.972,-0.499 6.021,1.919 6.021,1.919l12.05,10.343c0.686,0.589 3.467,3.168 4.096,6.769l8.155,-9.499c-4.495,-0.684 -7.194,-2.924 -7.441,-3.136l-13.735,-11.711c0.486,-1.628 1.151,-2.816 1.893,-3.68c2.635,-3.069 6.241,-2.006 6.241,-2.006l-1.885,-10.038c0.001,0.004 -2.729,-0.506 -5.488,2.708l-0,-0Z" style="fill:#fff;fill-rule:nonzero;stroke:#fff;stroke-width:0.24px;stroke-linecap:butt;stroke-miterlimit:2;"/><path d="M306.49,193.284l-6.823,-3.464c-2.347,4.624 -0.478,8.622 1.121,10.783c-2.24,1.202 -4.177,3.197 -5.523,5.848c-3.315,6.53 -1.374,14.339 3.533,16.831c4.257,2.161 8.751,1.591 12.096,-0.955c-0.535,2.898 -0.409,7.851 2.024,9.087c1.814,0.921 4.753,-0.593 8.889,-7.201c7.978,-12.74 11.458,-12.937 12.202,-10.656c1.325,4.06 -3.688,12.715 -10.557,13.088l2.937,9.719c3.208,-0.557 6.587,-2.659 9.685,-8.762c3.139,-6.183 0.613,-16.795 -3.582,-20.6c-5.511,-4.999 -7.953,0.803 -11.507,7.803c-3.425,6.748 -5.798,8.507 -7.403,7.692c-0.651,-0.33 -1.088,-0.93 -1.353,-1.408c1.081,-1.012 1.964,-2.335 2.766,-3.914c3.35,-6.599 3.531,-13.102 -3.631,-16.877c-2.761,-1.402 -5.816,-1.534 -8.649,-0.561c0.349,-2.696 1.607,-4.847 3.775,-6.453l-0,-0Zm6.944,18.197c-2.132,4.199 -4.707,6.477 -10.228,5.594c-2.028,-0.323 -3.587,-0.722 -4.658,-1.266c-1.809,-0.918 -2.231,-2.25 -1.179,-4.323c2.098,-4.132 5.085,-5.302 10.678,-4.364c2.104,0.356 3.635,0.708 4.601,1.199c1.321,0.667 1.578,1.6 0.786,3.16l0,-0Z" style="fill:#fff;fill-rule:nonzero;stroke:#fff;stroke-width:0.24px;stroke-linecap:butt;stroke-miterlimit:2;"/></g><g><path d="M68.729,109.438l-6.079,19.633c3.276,-1.445 7.194,-0.35 7.735,-0.189l29.246,9.055c0.541,0.171 4.39,1.481 6.275,4.527l4.003,-12.929c-3.731,1.361 -7.778,0.108 -7.778,0.108l-8.457,-2.618l2.487,-8.034c0,-0 3.812,-12.523 -11.052,-17.125c-12.809,-3.963 -16.38,7.572 -16.38,7.572Zm22.355,16.787l-20.939,-6.482l1.347,-4.351c-0,0 2.609,-8.328 11.185,-5.673c10.839,3.356 10.011,10.751 8.407,16.506l-0,0Z" style="fill:#fff;fill-rule:nonzero;"/><path d="M116.39,112.695l6.211,-10.873c-4.765,0.188 -7.423,-1.182 -8.017,-1.521l-36.846,-21.049c0,-0 -1.02,10.779 -0.94,10.825c3.145,-1.046 6.277,0.743 6.277,0.743l27.837,15.903c0.963,0.55 4.135,2.43 5.478,5.972l-0,-0Z" style="fill:#fff;fill-rule:nonzero;"/><path d="M133.009,75.774c-3.886,-3.422 -7.099,-6.252 -10.982,-9.673c-0.925,-0.815 -4.657,-3.944 -13.231,0.482c-4.587,2.365 -7.706,6.769 -7.444,11.981l8.067,2.804c-1.637,-3.883 -1.543,-8.774 1.047,-11.715c1.326,-1.504 5.592,1.648 6.578,2.674c-1.277,4.606 -3.377,12.446 -4.917,18.593c-0.386,1.618 0.141,2.889 1.211,3.832c3.454,3.041 12.576,2.713 15.191,-0.256c2.381,-2.704 1.974,-9.131 1.813,-10.959l0.854,0.753c2.753,2.424 5.154,0.749 5.154,0.749l2.405,-7.32c-2.809,0.502 -5.308,-1.559 -5.746,-1.945l-0,-0Zm-7.278,11.19c-0.647,0.736 -1.334,1.397 -1.998,1.877c-1.308,0.932 -3.565,0.608 -5.094,-0.739c-1.133,-0.998 -1.865,-2.553 -1.518,-4.579c1.092,-6.118 1.516,-8.606 1.715,-9.696l9.938,8.33c-0.406,1.255 -1.636,3.21 -3.043,4.807l-0,0Z" style="fill:#fff;fill-rule:nonzero;"/><path d="M164.9,64.426c-4.202,-2.405 -5.71,-4.329 -6.129,-4.971c-3.22,-4.93 -6.484,-9.835 -9.704,-14.765c-3.22,-4.93 -7.26,-5.363 -10.981,-2.934c-3.719,2.43 -6.144,9.905 -6.601,11.637l-3.353,-5.135c-0,-0 -5.822,9.128 -5.772,9.204c3.274,0.505 5.246,3.524 5.246,3.524c2.868,4.398 5.745,8.793 8.616,13.189c0.495,0.757 2.445,4.009 2.044,7.643l10.482,-6.846c-4.122,-1.917 -6.076,-4.794 -6.283,-5.112l-9.961,-15.021c1.283,-1.969 2.567,-3.21 3.818,-4.027c5.962,-3.893 8.739,0.359 8.739,0.359c2.588,3.963 5.178,7.929 7.767,11.892c0.145,0.223 1,1.723 2.218,7.796l9.853,-6.435l0.001,0.002Z" style="fill:#fff;fill-rule:nonzero;"/><path d="M178.98,56.533c-3.365,1.122 -6.157,1.682 -10.125,-2.51c-0.518,-0.558 -0.625,-0.912 -0.625,-0.912l8.156,-21.719c-0,0 -4.203,-3.6 -11.221,-1.259c-9.027,3.011 -10.813,10.951 -7.775,20.06c3.822,11.458 10.722,14.955 18.518,12.355c6.901,-2.302 8.28,-7.764 8.598,-8.602c-1.74,0.967 -3.626,1.953 -5.526,2.587l0,-0Zm-18.661,-16.006c-0.688,-2.449 -0.544,-3.87 1.638,-4.456c5.296,-1.42 9.049,-0.99 7.516,4.835c-0.507,1.925 -2.741,10.103 -2.741,10.103c-0.026,-0.079 -4.954,-6.109 -6.413,-10.483l0,0.001Z" style="fill:#fff;fill-rule:nonzero;"/><path d="M194.334,50.396c-0.102,-1.017 -2.173,-21.709 -2.173,-21.709l6.357,-0.636l0.873,-3.328l-7.678,0.768l-0.762,-7.615l-9.488,11.882l3.146,-0.315c0,0 1.158,18.625 1.389,21.528c0.23,2.919 2.875,8.235 9.532,7.568c8.936,-0.894 10.936,-6.307 10.936,-6.307c-1.669,0.865 -11.62,3.284 -12.132,-1.836Z" style="fill:#fff;fill-rule:nonzero;"/><path d="M232.272,51.08c0.678,-5.134 1.239,-9.378 1.917,-14.509c0.161,-1.222 0.681,-6.064 -7.77,-10.72c-4.519,-2.492 -9.914,-2.629 -14.097,0.491l2.164,8.262c2.314,-3.522 6.428,-6.168 10.313,-5.655c1.988,0.262 1.746,5.561 1.443,6.952c-4.536,1.505 -12.217,4.128 -18.18,6.272c-1.558,0.581 -2.321,1.727 -2.507,3.141c-0.603,4.562 4.751,11.955 8.673,12.473c3.572,0.472 8.683,-3.446 10.111,-4.598l-0.149,1.128c-0.48,3.637 2.249,4.698 2.249,4.698l7.419,-2.079c-1.982,-2.054 -1.662,-5.278 -1.586,-5.856l0,-0Zm-13.347,0.189c-0.971,-0.129 -1.903,-0.331 -2.672,-0.614c-1.502,-0.568 -2.49,-2.623 -2.223,-4.643c0.197,-1.496 1.082,-2.971 2.957,-3.811c5.689,-2.501 7.992,-3.535 9.008,-3.976l-1.382,12.893c-1.27,0.362 -3.578,0.429 -5.688,0.151l-0,-0Z" style="fill:#fff;fill-rule:nonzero;"/><path d="M262.284,35.862c-4.689,-1.901 -9.948,0.472 -11.773,1.436l2.208,-5.449l-10.967,0.465c1.42,2.657 0.099,6.318 0.099,6.318l-5.963,14.719c-0.339,0.838 -1.898,4.295 -5.11,6.039l11.602,4.703c-0.784,-4.479 0.479,-7.752 0.601,-8.053l6.723,-16.752c1.699,-0.057 3.037,0.195 4.092,0.622c3.749,1.52 3.89,5.277 3.89,5.277l8.914,-4.986c-0.003,0.001 -0.39,-2.748 -4.316,-4.339l0,-0Z" style="fill:#fff;fill-rule:nonzero;"/><path d="M278.846,42.477l8.463,-2.121c-0,-0 -2.024,-3.501 -1.612,-8.206l-8.347,1.597c0.001,-0.003 -0.662,4.619 1.496,8.73Zm-14.066,33.996c0.076,-4.548 1.937,-7.52 2.114,-7.793l13.902,-21.54l-10.861,-1.619c0.968,3.041 -1.096,6.222 -1.096,6.222l-8.4,12.954c-0.492,0.758 -2.677,3.858 -6.162,4.962l10.503,6.814Z" style="fill:#fff;fill-rule:nonzero;"/><path d="M289.228,94.563c-0.186,-3.309 2.359,-5.861 2.359,-5.861l16.878,-16.929l-10.291,-3.83c0.186,3.309 -2.404,5.907 -2.404,5.907l-11.252,11.286c-2.238,-0.981 -3.724,-1.953 -4.776,-3.002c-4.524,-4.511 -0.385,-8.662 -0.385,-8.662l15.36,-15.406l-9.665,-3.563c0.23,3.265 -2.406,5.908 -2.406,5.908l-11.03,11.063c-2.232,2.24 -5.846,6.135 -0.697,11.269l0.09,0.089c3.357,3.261 10.515,3.606 12.346,3.649l-4.017,4.029c0.002,-0.002 9.846,4.098 9.89,4.053l0,0Z" style="fill:#fff;fill-rule:nonzero;"/><path d="M300.399,124.317l5.173,10.565c2.888,-3.881 5.022,-5.135 5.704,-5.469l15.818,-7.815c2.84,-1.391 7.525,-3.898 4.327,-10.428c-2.197,-4.486 -9.391,-6.81 -10.462,-7.13c2.53,-1.59 4.872,-4.285 2.396,-9.342c-2.114,-4.317 -8.571,-6.719 -10.292,-7.213l5.453,-2.67c-0,-0 -8.371,-6.886 -8.427,-6.859c-0.901,3.189 -4.14,4.775 -4.14,4.775c-4.713,2.308 -9.426,4.616 -14.141,6.925c-0.796,0.389 -4.259,1.944 -7.846,1.094l5.507,11.246c2.409,-3.855 5.503,-5.443 5.844,-5.61l16.131,-8.039c1.71,1.485 2.833,2.91 3.444,4.157c2.725,5.566 -1.874,7.818 -1.874,7.818l-12.723,6.23c-0.23,0.113 -1.817,0.75 -7.986,1.235l5.173,10.565c2.889,-3.878 5.021,-5.135 5.703,-5.469l16.271,-8.036c1.516,1.334 2.695,2.878 3.54,4.634c2.492,5.09 -1.901,7.379 -3.136,7.984l-11.471,5.617c-0.227,0.111 -1.815,0.748 -7.986,1.235l0,0Z" style="fill:#fff;fill-rule:nonzero;"/></g></g></svg>