<svg id="logosandtypes_com" xmlns="http://www.w3.org/2000/svg" viewBox="0 0 150 150.2"><style>.st1{fill:#d35376}.st2{fill:#aadbf9}.st3{fill:#eb6609}.st4{fill:#a35495}.st5{fill:#6a3d90}.st6{fill:#2a2e87}</style><path d="M0 .2h150v150H0V.2z" fill="none" id="Layer_3"/><g id="hochschule_flensburg"><path class="st1" d="M36 25.5h22.2V42H36z"/><path class="st2" d="M63.9 47.6h22.2v14.9H63.9z"/><path class="st3" d="M36 36.5h22.2v26H36z"/><path class="st2" d="M91.8 3.3H114V18H91.8z"/><path class="st4" d="M36 58.8h22.2v14.4H36z"/><path class="st5" d="M36 70h22.2v14.1H36z"/><path class="st6" d="M36 80.8h22.2v48.6H36z"/><path class="st5" d="M36 125.5h22.2v14.6H36z"/><path class="st2" d="M36 136.6h22.2v11H36z"/><path class="st4" d="M63.9 58.8h22.2v14.4H63.9z"/><path class="st6" d="M63.9 69.8h22.2V92H63.9z"/><path class="st1" d="M91.8 14.3H114v13.8H91.8z"/><path fill="#e20612" d="M91.8 25.5H114v13.8H91.8z"/><path class="st3" d="M91.8 36.5H114v14.4H91.8z"/><path class="st1" d="M91.8 47.5H114v13.8H91.8z"/><path class="st5" d="M91.8 58.8H114v14.4H91.8z"/><path class="st6" d="M91.8 70H114v37.5H91.8z"/><path class="st5" d="M91.8 103.4H114v11H91.8z"/></g></svg>