<?xml version="1.0" encoding="UTF-8" standalone="no"?><!DOCTYPE svg PUBLIC "-//W3C//DTD SVG 1.1//EN" "http://www.w3.org/Graphics/SVG/1.1/DTD/svg11.dtd"><svg width="100%" height="100%" viewBox="0 0 414 318" version="1.1" xmlns="http://www.w3.org/2000/svg" xmlns:xlink="http://www.w3.org/1999/xlink" xml:space="preserve" xmlns:serif="http://www.serif.com/" style="fill-rule:evenodd;clip-rule:evenodd;stroke-linecap:round;stroke-linejoin:round;stroke-miterlimit:1.5;"><clipPath id="_clip1"><rect id="logo-entwurf.svg" x="0" y="0" width="414" height="318"/></clipPath><g clip-path="url(#_clip1)"><g id="Logo"><circle cx="207.099" cy="158.569" r="155.069" style="fill:none;stroke:#fff;stroke-width:7px;"/><g><g transform="matrix(0.735965,0.67702,-0.67702,0.735965,194.394,-2.49767)"><text x="100.399px" y="247.977px" style="font-family:'PresqueRegular', 'Presque';font-size:85px;fill:#fff;">F</text></g><g transform="matrix(0.895413,0.445237,-0.445237,0.895413,137.594,-31.3559)"><text x="135.539px" y="277.197px" style="font-family:'PresqueRegular', 'Presque';font-size:85px;fill:#fff;">l</text></g><g transform="matrix(0.966226,0.257695,-0.257695,0.966226,79.8131,-31.3575)"><text x="159.536px" y="288.81px" style="font-family:'PresqueRegular', 'Presque';font-size:85px;fill:#fff;">e</text></g><g transform="matrix(0.999637,0.026948,-0.026948,0.999637,8.05102,-4.99508)"><text x="189.352px" y="296.209px" style="font-family:'PresqueRegular', 'Presque';font-size:85px;fill:#fff;">n</text></g><g transform="matrix(0.977065,-0.212942,0.212942,0.977065,-57.9116,54.5793)"><text x="224.416px" y="296.13px" style="font-family:'PresqueRegular', 'Presque';font-size:85px;fill:#fff;">s</text></g><g transform="matrix(0.898105,-0.439781,0.439781,0.898105,-100.942,141.714)"><text x="255.349px" y="288.69px" style="font-family:'PresqueRegular', 'Presque';font-size:85px;fill:#fff;">b</text></g><g transform="matrix(0.775,-0.631961,0.631961,0.775,-109.518,240.958)"><text x="283.633px" y="274.281px" style="font-family:'PresqueRegular', 'Presque';font-size:85px;fill:#fff;">u</text></g><g transform="matrix(0.594801,-0.803873,0.803873,0.594801,-76.2532,351.211)"><text x="310.256px" y="251.245px" style="font-family:'PresqueRegular', 'Presque';font-size:85px;fill:#fff;">r</text></g><g transform="matrix(0.392607,-0.919706,0.919706,0.392607,-9.92664,439.646)"><text x="327.89px" y="227.338px" style="font-family:'PresqueRegular', 'Presque';font-size:85px;fill:#fff;">g</text></g></g><g><g transform="matrix(0.159768,-0.987155,0.987155,0.159768,-68.6336,233.639)"><text x="102.929px" y="157.137px" style="font-family:'PresqueRegular', 'Presque';font-size:85px;fill:#fff;stroke:#fff;stroke-width:1px;stroke-linecap:butt;stroke-miterlimit:2;">P</text></g><g transform="matrix(0.430872,-0.902413,0.902413,0.430872,-47.2284,168.135)"><text x="109.684px" y="121.51px" style="font-family:'PresqueRegular', 'Presque';font-size:85px;fill:#fff;stroke:#fff;stroke-width:1px;stroke-linecap:butt;stroke-miterlimit:2;">l</text></g><g transform="matrix(0.610905,-0.791704,0.791704,0.610905,-35.506,133.507)"><text x="118.072px" y="102.876px" style="font-family:'PresqueRegular', 'Presque';font-size:85px;fill:#fff;stroke:#fff;stroke-width:1px;stroke-linecap:butt;stroke-miterlimit:2;">a</text></g><g transform="matrix(0.788039,-0.615625,0.615625,0.788039,-22.1676,99.8352)"><text x="133.898px" y="82.11px" style="font-family:'PresqueRegular', 'Presque';font-size:85px;fill:#fff;stroke:#fff;stroke-width:1px;stroke-linecap:butt;stroke-miterlimit:2;">n</text></g><g transform="matrix(0.913905,-0.405929,0.405929,0.913905,-13.1134,68.7926)"><text x="155.618px" y="65.31px" style="font-family:'PresqueRegular', 'Presque';font-size:85px;fill:#fff;stroke:#fff;stroke-width:1px;stroke-linecap:butt;stroke-miterlimit:2;">e</text></g><g transform="matrix(0.981947,-0.189154,0.189154,0.981947,-7.34085,34.4355)"><text x="176.737px" y="55.676px" style="font-family:'PresqueRegular', 'Presque';font-size:85px;fill:#fff;stroke:#fff;stroke-width:1px;stroke-linecap:butt;stroke-miterlimit:2;">t</text></g><g transform="matrix(0.99992,0.0126842,-0.0126842,0.99992,0.665066,-2.49931)"><text x="197.366px" y="51.181px" style="font-family:'PresqueRegular', 'Presque';font-size:85px;fill:#fff;stroke:#fff;stroke-width:1px;stroke-linecap:butt;stroke-miterlimit:2;">a</text></g><g transform="matrix(0.966427,0.256942,-0.256942,0.966427,20.7196,-55.7085)"><text x="223.534px" y="51.431px" style="font-family:'PresqueRegular', 'Presque';font-size:85px;fill:#fff;stroke:#fff;stroke-width:1px;stroke-linecap:butt;stroke-miterlimit:2;">r</text></g><g transform="matrix(0.896426,0.443193,-0.443193,0.896426,52.3173,-104.836)"><text x="250.455px" y="59.515px" style="font-family:'PresqueRegular', 'Presque';font-size:85px;fill:#fff;stroke:#fff;stroke-width:1px;stroke-linecap:butt;stroke-miterlimit:2;">i</text></g><g transform="matrix(0.814862,0.579655,-0.579655,0.814862,84.298,-138.447)"><text x="258.883px" y="62.742px" style="font-family:'PresqueRegular', 'Presque';font-size:85px;fill:#fff;stroke:#fff;stroke-width:1px;stroke-linecap:butt;stroke-miterlimit:2;">u</text></g><g transform="matrix(0.625578,0.780162,-0.780162,0.625578,165.139,-189.856)"><text x="280.365px" y="77.117px" style="font-family:'PresqueRegular', 'Presque';font-size:85px;fill:#fff;stroke:#fff;stroke-width:1px;stroke-linecap:butt;stroke-miterlimit:2;">m</text></g></g><path d="M48.312,158.569c-14.362,1.587 -40.333,14.625 -43.217,28.264c-2.303,10.89 13.086,22.338 33.807,20.937c61.896,-4.188 289.44,-38.129 352.26,-63.272c20.458,-8.189 22.611,-21.573 9.866,-31.552c-7.839,-6.137 -32.112,-6.482 -44.917,-4.651" style="fill:none;stroke:#fff;stroke-width:9.73px;"/></g></g></svg>